<svg width="25" height="25" viewBox="0 0 25 25" fill="none" xmlns="http://www.w3.org/2000/svg">
<rect width="25" height="25" fill="white"/>
<path d="M3.69531 13.1719L8.14844 14.7422V16.9297L1.42188 14.0781V12.2344L8.14844 9.38281V11.5703L3.69531 13.1719ZM10.7188 18.9766H9.03906L13.2266 6.625H14.9062L10.7188 18.9766ZM20.6016 13.1484L16.0625 11.5625V9.39062L22.8672 12.2422V14.0781L16.0625 16.9375V14.7578L20.6016 13.1484Z" fill="#16E0BD"/>
<path d="M3.69531 13.1719L8.14844 14.7422V16.9297L1.42188 14.0781V12.2344L8.14844 9.38281V11.5703L3.69531 13.1719ZM10.7188 18.9766H9.03906L13.2266 6.625H14.9062L10.7188 18.9766ZM20.6016 13.1484L16.0625 11.5625V9.39062L22.8672 12.2422V14.0781L16.0625 16.9375V14.7578L20.6016 13.1484Z" fill="url(#paint0_linear)"/>
<defs>
<linearGradient id="paint0_linear" x1="12.5" y1="3" x2="12.5" y2="22" gradientUnits="userSpaceOnUse">
<stop stop-color="white"/>
<stop offset="1" stop-color="white" stop-opacity="0"/>
</linearGradient>
</defs>
</svg>
